<svg xmlns="http://www.w3.org/2000/svg" viewBox="0 0 35 34.5"><switch><g><path d="M17.5 2.1C9.1 2.1 2.4 8.9 2.4 17.3c0 8.4 6.8 15.1 15.1 15.1s15.1-6.8 15.1-15.1c0-8.4-6.7-15.2-15.1-15.2zm10.1 9c-.1.3-.2.6-.5.9-.4.5-.9.9-1.5 1.3l-.1.1v.4c0 .7 0 1.4-.1 2-.3 2.9-1.4 5.4-3.4 7.5-1.2 1.3-2.7 2.3-4.4 2.8-.8.3-1.6.4-2.4.5-2.1.1-4-.3-5.9-1.3-.1-.1-.3-.3-.6-.4 0 0-.1 0-.1-.1H9c.8-.1 1.6-.3 2.3-.5.7-.2 1.3-.6 1.9-1 .3-.2.5-.3.8-.5h-.1c-.5 0-1-.2-1.4-.3-.2-.1-.3-.2-.5-.3-.9-.6-1.4-1.4-1.8-2.3v-.1c.3.1.5.1.8.2h.8c.3 0 .5-.1.8-.2h-.1c-.5-.1-.9-.3-1.3-.5-.3-.2-.5-.4-.8-.6l-.1-.1c-.7-.8-1.2-1.7-1.4-2.8v-.3-.1s.1 0 .1.1c.4.2.8.4 1.2.4.3 0 .5 0 .8.1h.1c-.7-.4-1.3-1-1.7-1.7-.1-.2-.2-.5-.3-.7-.1-.2-.1-.5-.2-.7-.1-.9.1-1.8.5-2.7 0 0 0-.1.1-.1.2.5.5.8.9 1.2.5.5 1.1 1 1.7 1.4 1 .6 2 1.1 3.2 1.5.7.2 1.3.3 2 .3h.6c0-.2-.1-.3-.1-.4-.1-.3-.1-.6-.1-.8 0-.9.3-1.8.9-2.5.7-.8 1.5-1.3 2.6-1.4 1.1-.1 2 .1 2.9.9l.4.4c.1.1.1.1.2.1.4-.1.7-.2 1.1-.4.3-.2.7-.3 1-.5 0 0 .1 0 .1-.1v.5c-.2.5-.5 1-.9 1.4-.2.1-.4.3-.6.3h-.1c0 .1.1 0 .1.1.3 0 .7 0 1-.1.4-.1.7-.3 1-.4.1-.5.1-.5.2-.5z" fill="#e6e6e6"/></g></switch></svg>