<svg xmlns="http://www.w3.org/2000/svg" viewBox="0 0 34.5 34.5"><switch><g><path d="M17.1 2.1c8.3-.1 15.1 6.6 15.2 14.8.2 8.4-6.5 15.3-14.7 15.5-8.5.2-15.5-6.7-15.4-15.2 0-8.3 6.6-15 14.9-15.1zM21 29.5c.1 0 .1 0 0 0h.2c1.8-.7 3.4-1.7 4.8-3 1.5-1.5 2.6-3.2 3.3-5.1.9-2.8.9-5.6-.1-8.3-1-2.8-2.8-5-5.3-6.5-2.6-1.7-5.5-2.2-8.6-1.8-2.2.3-4.2 1.2-6 2.6-2 1.6-3.4 3.6-4.2 6-.8 2.4-.9 4.9-.2 7.3.6 2.2 1.7 4 3.3 5.7 1.3 1.4 2.9 2.4 4.7 3.1.2.1.4.2.7.2v-.2-2.3c0-.7.1-1.3.6-1.9l.6-.6h-.1c-.8-.1-1.7-.2-2.5-.5-1.7-.6-2.9-1.6-3.6-3.3-.4-1-.5-2.1-.6-3.2 0-1.5.4-2.9 1.4-4.1 0 0 .1-.1 0-.2-.4-1.2-.3-2.4.1-3.6 0-.1.1-.2.2-.2.4 0 .8.1 1.2.2.9.3 1.7.7 2.5 1.3.1.1.2.1.3 0 .3-.1.6-.1.9-.2 2-.4 4.1-.3 6.1.2.1 0 .2 0 .3-.1.8-.6 1.7-1.1 2.7-1.3.3-.1.7-.1 1-.1.1 0 .2.1.2.1.4 1.1.5 2.3.2 3.5-.1.2 0 .4.1.5.7.8 1.1 1.8 1.2 2.9.1 1.1 0 2.2-.2 3.3-.4 1.5-1.1 2.6-2.4 3.5-1 .7-2.2 1-3.4 1.1-.2 0-.4.1-.6.1.1 0 .1.1.1.1.5.4.9 1 1 1.6.1.5.1 1 .1 1.5v1.7z" fill="#f2f2f2"/></g></switch></svg>