<svg xmlns="http://www.w3.org/2000/svg" viewBox="0 0 47.5 34.5"><switch><g><path d="M45.2 10.5v13.3c0 .1-.1.1-.1.2-.1 1-.3 2-.4 3-.4 2.6-2.4 4.2-4.6 4.6-1.6.2-3.1.4-4.7.4-1.7.1-3.3.1-5 .2h-1.8s-.1 0-.1.1h-9.2c-.9 0-1.8 0-2.8-.1-1.6-.1-3.2-.1-4.8-.2-1.4-.1-2.7-.2-4-.4-2.4-.5-3.9-1.9-4.5-4.3-.4-1.8-.6-3.7-.7-5.5 0-.6-.1-1.3-.1-1.9 0 0 0-.1-.1-.1v-5-.2c.1-1.1.1-2.2.2-3.3.1-1.3.3-2.7.5-4 .5-2.4 2.3-4.1 4.8-4.4 1.5-.2 3-.3 4.5-.4 1.7-.1 3.3-.1 5-.2h1.8s.1 0 .1-.1H28.5c2.7.1 5.4.1 8.1.3 1.2.1 2.4.2 3.6.4 2.2.5 3.6 1.8 4.2 3.9.3 1.1.5 2.3.6 3.4.2.2.2.3.2.3zM19.6 23.7c3.8-2.2 7.5-4.3 11.2-6.5-3.8-2.2-7.5-4.3-11.2-6.5v13z" fill="#f2f2f2"/></g></switch></svg>