<svg version="1.1" id="prefix__Слой_1" xmlns="http://www.w3.org/2000/svg" x="0" y="0" viewBox="0 0 195.5 66.5" xml:space="preserve"><style>.prefix__st0{fill:#333}</style><switch><g><path class="prefix__st0" d="M105.5 21.1h6c2.6 0 4.6.5 6 1.6 1.4 1.1 2.1 2.6 2.1 4.6 0 1.5-.4 2.8-1.2 3.8-.8 1-2 1.7-3.5 2.2l1.2.9c.4.3.7.7 1 1.2l6.8 10.4h-2.2l-3.9-6c-.8-1.2-1.4-2.2-2-2.9-.6-.8-1-1.3-1.3-1.6-.4-.4-1-.7-1.7-.9-.7-.2-1.8-.3-3.1-.3h-2v11.8h-2V21.1zm1.9 1.6v9.4h1.5c1.9 0 3.2 0 3.9-.1.7-.1 1.3-.3 1.8-.5.9-.4 1.6-1 2-1.7.4-.7.7-1.6.7-2.6 0-1.4-.5-2.5-1.5-3.3-1-.8-2.5-1.2-4.3-1.2h-4.1zM126.1 45.6l10.7-24.8h.8l10.7 24.8h-2.1l-3.6-8.5h-10.8l-3.6 8.5h-2.1zm6.4-10.2h9.4l-4.7-11.1-4.7 11.1zM152.2 45.6V21.1h2.1v24.6h-2.1zM162 45.6V21.1h2.1l18 21.4V21.1h2v24.6h-1.8L164.1 24v21.7H162zM191.6 45.6V21.1h2.1v24.6h-2.1z"/><linearGradient id="prefix__SVGID_1_" gradientUnits="userSpaceOnUse" x1="20.422" y1="48.924" x2="80.855" y2=".482"><stop offset="0" stop-color="#e2bac4"/><stop offset="1" stop-color="#aa6176"/></linearGradient><path d="M50.3 55.3c-.7 1.4-1.6 2.8-2.4 4.1-2.7-.3-5.4-1.2-7.8-2.4-1.2-.6-1.8-1-2.8-1.6-2-1.1-4.8-1.5-7.2-.5-1 .4-1.7.9-3 1.3-2.4.9-5 1.3-7.6 1.1 1.5-5.2 4.3-9.8 8-13.5 3-3 6.6-5.4 10.6-7 .2.3.4.6.6.8.6.6 1.5 1 2.4 1 .9 0 1.8-.4 2.4-1 .6-.6 1-1.5 1-2.4V35c1.7-.3 3.4-.4 5.2-.4 1.9 0 3.7.2 5.4.5v1c0 2.2-.2 4.4-.5 6.6-.3-.1-.7-.1-1.1-.1-1.9 0-3.5.8-4.8 2-1.2 1.2-2 2.9-2 4.8s.8 3.5 2 4.8c.5.4 1 .8 1.6 1.1zm13.8-41.7c.1-.7.5-1.3.9-1.7.6-.6 1.5-1 2.4-1 .9 0 1.8.4 2.4 1 .3.3.6.7.8 1.1 1.8-.6 3.3-1.6 4.6-2.9 1-.9 1.8-2.1 2.4-3.3C76.2 4.4 74 2.6 71.5 2c-2.6-.7-5.1-.3-7.3.8-.9.5-1.9 1.2-2.5 1.9-.3.4-.7.8-1 1.2-.1.2-.3.4-.5.6-.5.6-1 1.1-1.6 1.6-.4.3-.8.6-1.4.8l-.6.3c.2.2.4.5.7.7 1.9 2 4.2 3.2 6.8 3.7zM14.3 38.8c-.4-.9-.7-1.8-.7-2.9 0-1.8.7-3.3 1.8-4.5 1.2-1.2 2.7-1.9 4.5-1.9 1.4 0 2.7.5 3.8 1.3 2-3 3.2-6.6 3.5-10.5-.8 0-1.5 0-2.3-.2-3.9-.9-7.7-.6-11.3.8-1.6.6-2.9 1.4-4.2 2.4l-1.2 1-.3.3c-1.3 1.1-2.8 3.1-3.6 4.6-1.9 3.4-2.8 7.3-2.4 11.1 1.2.2 2.5.3 3.8.3 3 0 5.9-.6 8.6-1.8zm23.4-3v-.5c0-.9.4-1.8 1-2.4.6-.6 1.5-1 2.4-1 .9 0 1.8.4 2.4 1 .3.3.6.7.8 1.1 1.8-.3 3.6-.5 5.4-.5 1.8 0 3.6.2 5.4.5-.1-2.3-.4-4.6-.9-6.8h-.7c-1.3 0-2.4-.5-3.2-1.3-.8-.8-1.3-2-1.3-3.2s.5-2.4 1.3-3.2c.3-.3.7-.6 1-.8-1.4-3-3.1-5.7-5.1-8.3-3.5.7-6.8 2.2-9.5 4.2l-2.4 2-1.1 1.1c-.3.3-.8.7-1.2 1-.8.6-1.8 1.1-3 1.4-.2.1-.4.1-.6.1-.2 4.2-1.6 8-3.8 11.3 1.1 1.1 1.7 2.7 1.7 4.4 0 1.7-.7 3.3-1.8 4.5-1.1 1.1-2.7 1.9-4.5 1.9-1.8 0-3.3-.7-4.5-1.9-.2-.2-.4-.4-.6-.7-2.8 1.3-6 2-9.3 2-1.2 0-2.4-.1-3.6-.3.1.7.3 1.4.5 2.1.7 2.4 1.7 4.3 2.9 5.9.6.9.9 1.1 1.5 1.8.3.4.4.3.6.6l1.1 1.1c2.1 1.8 4.2 2.9 7.2 3.8.9.3 1.8.4 2.7.5 1.5-5.4 4.4-10.3 8.3-14.2 3-3.1 6.7-5.5 10.9-7.2zM76 10.9c-1.4 1.4-3.2 2.6-5.2 3.3v.2c0 .9-.4 1.8-1 2.4-.6.6-1.4 1-2.4 1-.9 0-1.8-.4-2.4-1-.5-.5-.9-1.2-1-2-2.9-.5-5.5-1.8-7.5-3.8-.3-.3-.7-.7-1-1.1-.5 0-1.1.1-1.7.1-.7 0-1.4-.1-2.1-.1-.7 0-1.4 0-2.2.1-.7 0-1.5.1-2.2.2 1.9 2.5 3.6 5.2 4.9 8.1.4-.1.8-.2 1.2-.2 1.3 0 2.4.5 3.2 1.3.8.8 1.3 2 1.3 3.2s-.5 2.4-1.3 3.2c-.4.4-.9.8-1.5 1 .5 2.4.8 4.8.9 7.3 6.3 1.3 12 4.4 16.4 8.8.5.5 1 1 1.4 1.5 1.6-3.7 2.4-7.9 1.9-12.3-.1-1.3-.3-2.6-.7-3.8-.3-1.2-.8-2.2-.9-3.4-.4-2.7.5-5.2 1.8-6.8.3-.4.7-.8 1-1.2 1-1.5 1.6-2.9 1.7-4.9.1-1.5-.1-3-.6-4.2-.4 1.3-1.2 2.2-2 3.1zM56.1 35.3v.8c0 2.3-.2 4.6-.5 6.8 1 .3 1.9.9 2.6 1.6 1.2 1.2 2 2.9 2 4.8s-.8 3.5-2 4.8a6.8 6.8 0 01-4.8 2c-.7 0-1.5-.1-2.1-.3-.7 1.3-1.4 2.6-2.2 3.8 3.1.3 6.3-.1 9.2-1 6.7-2.1 12.1-6.8 15-12.8-.5-.6-1.1-1.3-1.7-1.8-4.1-4.4-9.5-7.4-15.5-8.7zM26.5 14.5c2.8-.3 5.1-2.8 4.7-6-.3-2.7-2.8-5.1-5.9-4.7-2.8.3-5.1 2.8-4.8 6 .4 2.7 2.9 5.1 6 4.7zm62.3 8.4c-.2-2.1-2.1-3.9-4.6-3.6-2.1.2-3.9 2.1-3.6 4.6.3 2.1 2.1 3.9 4.6 3.6 2.1-.3 3.9-2.2 3.6-4.6zM32.6 60.1c-1.2.1-2.2 1.2-2.1 2.6.1 1.2 1.2 2.2 2.6 2.1 1.2-.1 2.3-1.3 2.1-2.6-.1-1.2-1.2-2.3-2.6-2.1zm34.8-47.6c-.5 0-.9.2-1.2.5-.3.3-.5.8-.5 1.2 0 .5.2.9.5 1.2.3.3.8.5 1.2.5.5 0 .9-.2 1.2-.5.3-.3.5-.8.5-1.2 0-.5-.2-.9-.5-1.2-.3-.3-.7-.5-1.2-.5zm-14 13.1c.8 0 1.6-.3 2.1-.9.5-.5.9-1.3.9-2.1s-.3-1.5-.9-2.1c-.5-.5-1.3-.9-2.1-.9s-1.5.3-2.1.9c-.5.5-.9 1.3-.9 2.1s.3 1.5.9 2.1c.5.6 1.3.9 2.1.9zm-3.6 20.1c-.9.9-1.5 2.2-1.5 3.6s.6 2.7 1.5 3.6c.9.9 2.2 1.5 3.6 1.5s2.7-.6 3.6-1.5c.9-.9 1.5-2.2 1.5-3.6s-.6-2.7-1.5-3.6c-.9-.9-2.2-1.5-3.6-1.5s-2.6.6-3.6 1.5zM39.8 34c-.3.3-.5.8-.5 1.2 0 .5.2.9.5 1.2.3.3.8.5 1.2.5.5 0 .9-.2 1.2-.5.3-.3.5-.8.5-1.2 0-.5-.2-.9-.5-1.2-.3-.3-.8-.5-1.2-.5-.5 0-.9.2-1.2.5zm-23.2-1.4c-.9.8-1.4 2-1.4 3.3 0 1.3.5 2.5 1.4 3.3.8.8 2 1.4 3.3 1.4s2.5-.5 3.3-1.4c.8-.8 1.4-2 1.4-3.3 0-1.3-.5-2.5-1.4-3.3-.8-.9-2-1.4-3.3-1.4s-2.4.5-3.3 1.4z" fill="url(#prefix__SVGID_1_)"/></g></switch></svg>